<svg xmlns="http://www.w3.org/2000/svg" version="1.1" xmlns:xlink="http://www.w3.org/1999/xlink" xmlns:svgjs="http://svgjs.dev/svgjs" width="2000" height="323" viewBox="0 0 2000 323"><g transform="matrix(1,0,0,1,-1.2121212121212466,-0.30578866408421845)"><svg viewBox="0 0 396 64" data-background-color="#444444" preserveAspectRatio="xMidYMid meet" height="323" width="2000" xmlns="http://www.w3.org/2000/svg" xmlns:xlink="http://www.w3.org/1999/xlink"><g id="tight-bounds" transform="matrix(1,0,0,1,0.2400000000000091,0.060589704338667616)"><svg viewBox="0 0 395.52 63.87882059132268" height="63.87882059132268" width="395.52"><g><svg viewBox="0 0 566.9237979284737 91.5615482828283" height="63.87882059132268" width="395.52"><g><rect width="5.974757536659394" height="66.58419393939394" x="149.78831385605676" y="12.488677171717178" fill="#ffffff" opacity="1" stroke-width="0" stroke="transparent" fill-opacity="1" class="rect-qz-0" data-fill-palette-color="primary" rx="1%" id="qz-0" data-palette-color="#ffffff"></rect></g><g transform="matrix(1,0,0,1,171.40379792847372,12.654309494949501)"><svg viewBox="0 0 395.52 66.2529292929293" height="66.2529292929293" width="395.52"><g id="textblocktransform"><svg viewBox="0 0 395.52 66.2529292929293" height="66.2529292929293" width="395.52" id="textblock"><g><svg viewBox="0 0 395.52 66.2529292929293" height="66.2529292929293" width="395.52"><g transform="matrix(1,0,0,1,0,0)"><svg width="395.52" viewBox="-0.24 -37.7 232 38.870000000000005" height="66.2529292929293" data-palette-color="#ffffff"><g class="wordmark-text-0" data-fill-palette-color="primary" id="text-0"><path d="M10.99-13.33L10.99-13.33Q11.08-13.09 11.72-12.28 12.35-11.47 13.16-10.52 13.96-9.57 14.75-8.69 15.53-7.81 15.82-7.42L15.82-7.42Q16.75-6.05 17.72-4.74 18.7-3.42 19.58-2L19.58-2Q19.82-1.76 19.97-1.39 20.12-1.03 20.12-0.63L20.12-0.63Q20.12-0.2 19.9-0.17 19.68-0.15 19.43-0.05L19.43-0.05Q18.95 0.29 18.55 0.34 18.16 0.39 17.92 0.39L17.92 0.39Q17.38 0.39 16.75 0.37 16.11 0.34 15.67 0.44L15.67 0.44Q15.53 0.49 15.33 0.61 15.14 0.73 15.04 0.73L15.04 0.73Q14.65 0.73 14.48 0.61 14.31 0.49 14.01 0.39L14.01 0.39Q13.62-0.05 13.31-0.54 12.99-1.03 12.65-1.51L12.65-1.51Q12.35-1.86 12.01-2.12 11.67-2.39 11.38-2.78L11.38-2.78Q10.6-3.91 9.79-4.93 8.98-5.96 8.15-6.98L8.15-6.98Q7.76-7.52 7.3-8.01 6.84-8.5 6.45-8.98L6.45-8.98Q6.05-9.52 5.71-10.11 5.37-10.69 4.98-11.23L4.98-11.23Q4.69-11.72 4.15-12.43 3.61-13.13 3.03-13.87 2.44-14.6 1.83-15.26 1.22-15.92 0.78-16.26L0.78-16.26Q0.78-16.6 0.59-16.75 0.39-16.89 0.15-17.09L0.15-17.09Q0.05-17.33-0.1-17.55-0.24-17.77-0.24-18.07L-0.24-18.07Q-0.24-18.26-0.2-18.41-0.15-18.55-0.1-18.7L-0.1-18.7Q0-18.9 0.02-19.07 0.05-19.24 0.15-19.43L0.15-19.43Q0.39-20.07 0.85-20.56 1.32-21.04 1.56-21.68L1.56-21.68Q1.61-21.88 1.61-22.05 1.61-22.22 1.71-22.41L1.71-22.41Q1.86-22.71 2.15-23 2.44-23.29 2.69-23.63L2.69-23.63Q2.93-24.07 3.17-24.51 3.42-24.95 3.66-25.39L3.66-25.39Q4.35-26.51 5.18-27.56 6.01-28.61 6.74-29.64L6.74-29.64Q7.42-30.62 8.01-31.57 8.59-32.52 9.28-33.5L9.28-33.5Q9.62-33.98 10.06-34.59 10.5-35.21 10.96-35.79 11.43-36.38 11.91-36.89 12.4-37.4 12.89-37.65L12.89-37.65Q13.72-37.74 13.96-37.38 14.21-37.01 14.65-37.01L14.65-37.01Q15.33-36.87 15.58-36.57 15.82-36.28 16.06-36.04L16.06-36.04Q16.7-36.04 17.14-35.79 17.58-35.55 18.02-35.06L18.02-35.06Q17.82-34.52 17.5-34.08 17.19-33.64 16.94-33.15L16.94-33.15Q16.55-33.01 16.38-32.67 16.21-32.32 15.87-32.08L15.87-32.08Q15.33-31.25 14.79-30.44 14.26-29.64 13.72-28.91L13.72-28.91Q13.48-28.61 13.16-28.44 12.84-28.27 12.65-27.93L12.65-27.93Q12.55-27.78 12.5-27.61 12.45-27.44 12.35-27.29L12.35-27.29Q11.77-26.37 11.04-25.49 10.3-24.61 9.77-23.63L9.77-23.63Q9.52-23.29 9.38-22.92 9.23-22.56 9.03-22.22L9.03-22.22Q8.84-21.92 8.47-21.39 8.11-20.85 7.74-20.29 7.37-19.73 7.1-19.21 6.84-18.7 6.84-18.36L6.84-18.36Q6.88-18.12 7.47-17.38 8.06-16.65 8.76-15.82 9.47-14.99 10.13-14.26 10.79-13.53 10.99-13.33ZM32.32-37.01L32.42-36.96Q32.66-36.08 32.91-35.23 33.15-34.38 33.49-33.54L33.49-33.54Q34.23-33.45 34.4-33.4 34.57-33.35 34.81-33.25L34.81-33.25Q35.35-31.98 35.47-30.54 35.59-29.1 35.84-27.73L35.84-27.73Q36.77-26.51 37.18-25.12 37.6-23.73 38.13-22.31L38.13-22.31Q38.28-21.83 38.33-21.7 38.38-21.58 38.38-21.48L38.38-21.48Q38.67-20.65 38.96-19.78 39.26-18.9 39.6-18.07L39.6-18.07Q39.74-17.63 39.91-17.21 40.09-16.8 40.23-16.41L40.23-16.41Q40.38-15.92 40.5-15.41 40.62-14.89 40.77-14.4L40.77-14.4Q41.11-13.43 41.5-12.45 41.89-11.47 42.28-10.5L42.28-10.5Q42.43-10.16 42.84-8.98 43.26-7.81 43.7-6.52 44.14-5.22 44.5-4.13 44.87-3.03 44.87-2.78L44.87-2.78Q44.87-2.39 44.94-1.98 45.02-1.56 45.07-1.12L45.07-1.12Q44.87-0.63 44.58-0.59 44.28-0.54 44.04-0.63L44.04-0.63Q43.8-0.54 43.58-0.44 43.36-0.34 43.16-0.24L43.16-0.24Q43.02-0.2 42.92-0.1 42.82 0 42.67 0L42.67 0Q42.09 0 41.92 0.12 41.75 0.24 41.4 0.24L41.4 0.24Q40.96 0.1 40.84 0.22 40.72 0.34 40.62 0.39L40.62 0.39Q40.43 0.49 40.18 0.49 39.94 0.49 39.69 0.54L39.69 0.54Q39.6 0.34 39.52 0.15 39.45-0.05 39.3-0.29L39.3-0.29Q38.77-1.07 38.55-1.81 38.33-2.54 38.18-2.98L38.18-2.98Q37.94-3.52 37.77-4.05 37.6-4.59 37.35-5.13L37.35-5.13Q37.06-5.03 36.81-4.91 36.57-4.79 36.42-4.59L36.42-4.59Q35.84-4.59 35.84-4.44 35.84-4.3 35.74-4.15L35.74-4.15Q35.45-4.05 35.28-3.96 35.1-3.86 34.71-3.91L34.71-3.91Q34.47-3.66 34.23-3.49 33.98-3.32 33.59-3.27L33.59-3.27Q33.2-2.88 32.79-2.61 32.37-2.34 31.83-2.49L31.83-2.49Q31.15-2.34 30.47-2.22 29.78-2.1 29.1-2.1L29.1-2.1Q28.32-2.34 28.12-2.54 27.93-2.73 27.54-2.73L27.54-2.73Q27.59-3.42 27.24-3.66L27.24-3.66Q27.24-3.81 27.27-4.13 27.29-4.44 27.39-4.54L27.39-4.54Q28.02-4.83 28.12-5.18 28.22-5.52 28.66-5.62L28.66-5.62Q28.76-5.81 28.88-5.98 29-6.15 29.1-6.35L29.1-6.35Q29.34-6.45 29.51-6.49 29.68-6.54 29.78-6.79L29.78-6.79Q30.03-6.79 30.52-7.1 31-7.42 31.15-7.62L31.15-7.62Q31.54-7.76 31.64-7.89 31.74-8.01 31.88-8.11L31.88-8.11Q32.37-8.06 32.52-8.2L32.52-8.2Q32.91-8.01 33.4-8.01L33.4-8.01Q33.59-8.01 33.74-8.03 33.88-8.06 34.08-8.06L34.08-8.06Q34.47-8.45 35.08-8.57 35.69-8.69 36.08-9.08L36.08-9.08Q35.94-9.47 35.84-10.03 35.74-10.6 35.5-10.94L35.5-10.94Q35.4-11.57 35.18-12.16 34.96-12.74 34.81-13.28L34.81-13.28Q34.27-15.33 33.54-17.29 32.81-19.24 32.32-21.29L32.32-21.29Q32.22-21.53 32.1-21.8 31.98-22.07 31.88-22.31L31.88-22.31Q31.64-21.73 31.64-21.66 31.64-21.58 31.54-21.48L31.54-21.48Q31.49-21.24 31.44-21.07 31.39-20.9 31.3-20.65L31.3-20.65Q31.15-20.26 31.03-19.8 30.91-19.34 30.81-18.95L30.81-18.95Q30.56-18.12 30.37-17.21 30.17-16.31 29.93-15.43L29.93-15.43Q29.44-13.92 28.93-12.43 28.42-10.94 27.93-9.42L27.93-9.42Q27.83-8.74 27.71-8.37 27.59-8.01 27.46-7.64 27.34-7.28 27.27-6.93 27.19-6.59 27.19-6.4L27.19-6.4Q26.51-4.83 26.05-3.22 25.58-1.61 24.9-0.1L24.9-0.1Q24.7 0 24.56 0.15 24.41 0.29 24.22 0.29L24.22 0.29Q23.83 0.29 23.8 0.1 23.78-0.1 23.58-0.1L23.58-0.1Q23.39-0.1 23.24-0.02 23.09 0.05 22.95 0.15L22.95 0.15Q22.7 0.05 22.39 0.02 22.07 0 21.92-0.2L21.92-0.2Q21.58 0.05 21.24 0.05L21.24 0.05Q20.85 0.05 20.46-0.2L20.46-0.2Q20.16-0.1 19.87-0.1L19.87-0.1Q19.72-0.1 19.53-0.15 19.33-0.2 19.24-0.29L19.24-0.29Q19.19-0.49 19.19-0.68 19.19-0.88 19.19-1.12L19.19-1.12Q19.19-1.61 19.09-1.86L19.09-1.86Q19.97-4.35 20.8-6.91 21.63-9.47 22.46-12.11L22.46-12.11Q22.9-13.33 23.31-14.5 23.73-15.67 24.12-16.89L24.12-16.89Q24.31-17.58 24.46-18.19 24.61-18.8 24.85-19.38L24.85-19.38Q25.24-20.65 25.66-21.95 26.07-23.24 26.41-24.51L26.41-24.51Q26.61-24.66 26.66-24.85 26.71-25.05 26.8-25.29L26.8-25.29 26.76-25.93Q27.1-26.42 27.22-26.78 27.34-27.15 27.39-27.54L27.39-27.54Q27.63-28.13 27.83-28.81 28.02-29.49 28.12-30.08L28.12-30.08Q28.22-30.86 28.24-31.86 28.27-32.86 28.51-33.54L28.51-33.54Q28.61-33.74 28.68-33.81 28.76-33.89 28.76-34.13L28.76-34.13Q28.85-34.23 28.98-34.35 29.1-34.47 29.15-34.62L29.15-34.62Q29.39-35.01 29.32-35.3 29.25-35.6 29.25-35.94L29.25-35.94Q29.68-36.18 29.64-36.38 29.59-36.57 29.59-36.77L29.59-36.77Q29.59-37.01 29.9-37.23 30.22-37.45 30.32-37.7L30.32-37.7Q30.61-37.65 30.91-37.62 31.2-37.6 31.49-37.65L31.49-37.65Q31.83-37.01 32.32-37.01L32.32-37.01ZM81.73-0.15L81.73-0.15Q81.49 0.1 81.2 0.15 80.9 0.2 80.61 0.2L80.61 0.2Q79.88 0.54 79.05 0.54L79.05 0.54Q78.51 0.24 78.46 0.34 78.41 0.44 78.27 0.54L78.27 0.54Q77.53 0.88 76.95 0.9 76.36 0.93 75.97 1.17L75.97 1.17Q75.58 0.88 75.56 0.32 75.53-0.24 75.43-0.63L75.43-0.63Q75.19-0.98 75.09-1.49 75-2 74.95-2.54 74.9-3.08 74.82-3.59 74.75-4.1 74.56-4.49L74.56-4.49Q74.51-4.74 74.53-4.93 74.56-5.13 74.46-5.37L74.46-5.37Q74.51-6.2 74.41-6.69 74.31-7.18 74.21-7.71L74.21-7.71Q74.16-8.01 74.16-8.37 74.16-8.74 73.87-8.94L73.87-8.94Q74.02-9.62 73.92-9.96 73.82-10.3 73.77-10.6L73.77-10.6Q73.73-10.99 73.73-11.45 73.73-11.91 73.63-12.3L73.63-12.3Q73.33-14.65 72.99-16.99 72.65-19.34 72.36-21.68L72.36-21.68Q72.07-21.44 71.94-20.95 71.82-20.46 71.72-20.07L71.72-20.07Q71.43-19.19 71.19-18.26 70.94-17.33 70.7-16.46L70.7-16.46Q70.6-16.06 70.53-15.55 70.45-15.04 70.31-14.65L70.31-14.65Q69.82-13.23 69.45-12.21 69.09-11.18 68.75-10.11L68.75-10.11Q68.65-9.52 68.55-8.98 68.45-8.45 68.35-7.91L68.35-7.91Q68.31-7.62 68.21-7.08 68.11-6.54 68.01-6.3L68.01-6.3Q67.91-6.05 67.84-5.96 67.77-5.86 67.82-5.62L67.82-5.62Q67.33-4.88 67.16-4 66.99-3.13 66.55-2.29L66.55-2.29Q66.55-1.71 66.11-1.27L66.11-1.27Q65.86-1.22 65.64-1.17 65.42-1.12 65.18-0.98L65.18-0.98Q64.94-1.07 64.62-1.1 64.3-1.12 64.01-1.12L64.01-1.12Q63.76-1.17 63.57-1.29 63.37-1.42 63.13-1.46L63.13-1.46Q62.89-1.76 62.59-1.98 62.3-2.2 62.01-2.44L62.01-2.44Q61.71-3.17 61.47-3.42L61.47-3.42Q61.32-3.96 61.08-4.42 60.83-4.88 60.74-5.47L60.74-5.47Q60.59-6.01 60.37-6.47 60.15-6.93 59.91-7.47L59.91-7.47Q59.81-7.81 59.69-8.13 59.57-8.45 59.42-8.79L59.42-8.79Q59.37-9.18 59.15-9.77 58.93-10.35 58.83-10.79L58.83-10.79Q58.83-10.84 58.66-11.3 58.49-11.77 58.32-12.3 58.15-12.84 57.98-13.28 57.81-13.72 57.76-13.77L57.76-13.77Q57.66-14.01 57.59-14.23 57.51-14.45 57.42-14.75L57.42-14.75Q57.22-15.38 56.93-16.04 56.64-16.7 56.34-17.29L56.34-17.29Q56.1-17.77 56-18.24 55.9-18.7 55.76-19.14L55.76-19.14Q55.66-19.38 55.59-19.58 55.51-19.78 55.41-20.02L55.41-20.02Q55.32-20.31 55.22-20.63 55.12-20.95 55.02-21.29L55.02-21.29Q54.78-21.19 54.8-20.87 54.83-20.56 54.78-20.31L54.78-20.31Q54.68-19.78 54.68-19.26 54.68-18.75 54.63-18.21L54.63-18.21Q54.54-17.63 54.44-17.09 54.34-16.55 54.29-16.02L54.29-16.02Q54.29-14.7 54.15-13.38L54.15-13.38Q54.05-12.21 53.9-11.01 53.75-9.81 53.71-8.54L53.71-8.54Q53.71-7.62 53.51-6.71 53.32-5.81 53.41-4.83L53.41-4.83Q53.32-4.64 53.32-4.54 53.32-4.44 53.32-4.25L53.32-4.25Q53.32-4 53.29-3.71 53.27-3.42 53.27-3.17L53.27-3.17Q53.27-2.73 53.36-2.59L53.36-2.59Q53.22-2.15 53.22-1.64 53.22-1.12 53.22-0.63L53.22-0.63Q53.12-0.44 53.1-0.24 53.07-0.05 52.92 0.15L52.92 0.15Q52.97 0.98 52.44 0.98L52.44 0.98Q52.29 0.98 52.12 0.9 51.95 0.83 51.85 0.68L51.85 0.68Q51.31 0.73 51.24 0.44 51.17 0.15 50.92 0.2L50.92 0.2Q50.34 0.44 50.26 0.34 50.19 0.24 49.95 0.29L49.95 0.29Q49.56-0.1 49.43-0.05 49.31 0 49.21 0L49.21 0Q48.77-0.15 48.73-0.07 48.68 0 48.53 0L48.53 0Q48.29-0.24 47.87-0.24 47.46-0.24 47.16-0.29L47.16-0.29Q47.11-0.49 47.09-0.66 47.07-0.83 47.07-1.07L47.07-1.07Q47.07-1.37 47.09-1.64 47.11-1.9 47.11-2.2L47.11-2.2Q47.11-2.44 47.09-2.71 47.07-2.98 47.07-3.32L47.07-3.32Q47.07-3.66 47.11-3.98 47.16-4.3 47.16-4.69L47.16-4.69Q47.16-4.83 47.11-4.96 47.07-5.08 47.07-5.27L47.07-5.27Q47.36-5.91 47.33-6.27 47.31-6.64 47.36-6.98L47.36-6.98Q47.46-7.81 47.53-8.62 47.6-9.42 47.7-10.25L47.7-10.25Q47.7-11.62 47.77-12.52 47.85-13.43 47.99-14.36L47.99-14.36Q48.09-14.79 48.16-15.19 48.24-15.58 48.33-16.02L48.33-16.02Q48.43-16.75 48.46-17.55 48.48-18.36 48.58-19.14L48.58-19.14Q48.68-20.36 48.82-21.56 48.97-22.75 49.07-23.93L49.07-23.93Q49.16-24.85 49.29-25.76 49.41-26.66 49.41-27.49L49.41-27.49Q49.41-27.93 49.53-28.61 49.65-29.3 49.7-29.79L49.7-29.79Q49.8-30.96 49.87-32.08 49.95-33.2 49.95-34.33L49.95-34.33 49.95-34.86Q49.95-34.96 50.04-35.06 50.14-35.16 50.14-35.4L50.14-35.4Q50.14-35.84 50.36-36.01 50.58-36.18 50.73-36.57L50.73-36.57Q50.97-36.57 51.29-36.52 51.61-36.47 51.75-36.23L51.75-36.23Q52.09-36.33 52.44-36.33 52.78-36.33 53.02-36.57L53.02-36.57Q53.32-36.57 53.46-36.43 53.61-36.28 53.85-36.18L53.85-36.18Q54.05-36.28 54.24-36.35 54.44-36.43 54.63-36.52L54.63-36.52Q54.78-36.43 54.85-36.3 54.93-36.18 55.07-36.13L55.07-36.13Q55.81-36.33 56.05-36.18L56.05-36.18Q56.15-35.99 56.17-35.79 56.2-35.6 56.25-35.4L56.25-35.4Q56.73-34.91 56.88-34.3 57.03-33.69 57.42-33.2L57.42-33.2Q57.51-32.91 57.64-32.62 57.76-32.32 57.86-31.93L57.86-31.93 58-31.35Q58.2-30.86 58.49-30.18L58.49-30.18Q58.74-29.25 58.93-28.27 59.13-27.29 59.57-26.46L59.57-26.46Q59.61-26.17 59.74-25.76 59.86-25.34 59.96-25.05L59.96-25.05Q60.3-24.22 60.66-23.41 61.03-22.61 61.32-21.68L61.32-21.68Q61.62-20.75 61.84-19.78 62.06-18.8 62.4-17.87L62.4-17.87Q62.69-16.99 62.84-16.6 62.98-16.21 63.23-15.82L63.23-15.82Q63.23-15.67 63.3-15.33 63.37-14.99 63.52-14.62 63.67-14.26 63.81-13.94 63.96-13.62 64.11-13.57L64.11-13.57Q64.25-13.67 64.28-13.87 64.3-14.06 64.45-14.21L64.45-14.21Q64.5-14.75 64.62-15.53 64.74-16.31 64.99-16.8L64.99-16.8Q64.99-17.04 65.11-17.7 65.23-18.36 65.42-19.12 65.62-19.87 65.79-20.51 65.96-21.14 66.11-21.29L66.11-21.29Q66.21-21.92 66.28-22.07 66.35-22.22 66.45-22.31L66.45-22.31Q66.5-22.71 66.65-23.05 66.79-23.39 66.84-23.78L66.84-23.78Q66.94-24.61 67.08-25.15 67.23-25.68 67.48-26.46L67.48-26.46Q67.67-27.15 67.84-27.86 68.01-28.56 68.26-29.25L68.26-29.25Q68.84-31.1 69.31-32.54 69.77-33.98 70.45-35.35L70.45-35.35Q70.6-35.79 70.7-35.89 70.8-35.99 70.89-36.08L70.89-36.08Q71.28-36.23 71.7-36.23 72.11-36.23 72.55-36.18L72.55-36.18Q73.04-36.38 73.29-36.62L73.29-36.62Q73.48-36.38 73.87-36.38L73.87-36.38Q74.36-36.38 74.56-36.67L74.56-36.67Q74.75-36.57 74.87-36.62 75-36.67 75.24-36.57L75.24-36.57Q75.34-36.67 75.48-36.79 75.63-36.91 75.78-36.91L75.78-36.91Q76.17-36.43 76.39-36.16 76.61-35.89 76.7-35.55L76.7-35.55Q76.85-35.11 76.87-34.59 76.9-34.08 77.14-33.64L77.14-33.64Q77.09-33.01 77.22-31.71 77.34-30.42 77.51-28.98 77.68-27.54 77.88-26.32 78.07-25.1 78.22-24.8L78.22-24.8Q78.17-24.17 78.27-23.73 78.36-23.29 78.36-22.85L78.36-22.85Q78.36-22.71 78.41-22.24 78.46-21.78 78.51-21.26 78.56-20.75 78.63-20.29 78.71-19.82 78.75-19.63L78.75-19.63Q78.75-18.75 79.05-18.26L79.05-18.26Q79.29-17.04 79.46-15.82 79.63-14.6 79.78-13.33L79.78-13.33Q79.88-12.7 79.9-12.11 79.93-11.52 80.02-10.89L80.02-10.89Q80.07-10.64 80.15-10.4 80.22-10.16 80.27-9.91L80.27-9.91Q80.37-9.42 80.41-8.98 80.46-8.54 80.56-8.11L80.56-8.11Q80.61-7.86 80.71-7.59 80.81-7.32 80.71-7.03L80.71-7.03Q80.81-6.69 80.78-6.3 80.76-5.91 80.95-5.62L80.95-5.62Q80.95-4.59 81.1-3.81L81.1-3.81Q81.15-3.22 81.39-2.64L81.39-2.64Q81.49-2.05 81.56-1.42 81.64-0.78 81.73-0.15ZM95.45-35.99L95.45-35.99Q95.55-35.79 95.67-35.72 95.79-35.64 95.84-35.4L95.84-35.4Q96.18-35.16 96.38-35.03 96.57-34.91 96.62-34.62L96.62-34.62Q97.06-34.28 97.14-34.18 97.21-34.08 97.26-33.94L97.26-33.94Q97.5-33.74 97.72-33.59 97.94-33.45 98.04-33.15L98.04-33.15Q98.43-32.81 98.53-32.62 98.63-32.42 98.67-32.18L98.67-32.18Q98.48-31.84 97.89-31.25 97.31-30.66 96.57-30 95.84-29.35 95.16-28.74 94.47-28.13 94.08-27.78L94.08-27.78Q93.99-27.59 93.84-27.44 93.69-27.29 93.6-27.1L93.6-27.1Q93.3-26.86 93.06-26.59 92.81-26.32 92.47-26.17L92.47-26.17Q91.98-25.49 91.11-24.83 90.23-24.17 89.93-23.54L89.93-23.54Q89.98-23.39 90.15-23.24 90.32-23.1 90.42-23L90.42-23Q90.81-22.61 91.35-22.29 91.89-21.97 92.28-21.58L92.28-21.58Q92.67-21.24 93.06-20.92 93.45-20.61 93.84-20.26L93.84-20.26Q94.04-20.07 94.33-19.68L94.33-19.68Q94.82-19.29 95.28-18.97 95.74-18.65 96.18-18.26L96.18-18.26Q97.11-17.48 97.99-16.67 98.87-15.87 99.85-15.09L99.85-15.09 100.24-14.65Q100.24-14.26 100.46-13.75 100.68-13.23 100.87-12.89L100.87-12.89Q100.77-12.4 100.9-12.28 101.02-12.16 101.12-12.06L101.12-12.06Q101.07-11.13 101.16-10.84L101.16-10.84Q100.33-10.11 99.63-9.5 98.92-8.89 98.38-8.3L98.38-8.3Q97.94-7.76 97.48-7.35 97.01-6.93 96.48-6.45L96.48-6.45Q96.18-6.05 95.99-5.91L95.99-5.91Q95.65-5.57 95.31-5.37L95.31-5.37Q94.72-4.83 94.16-4.35 93.6-3.86 93.06-3.37L93.06-3.37Q92.67-3.03 92.33-2.71 91.98-2.39 91.64-2L91.64-2Q91.35-1.71 90.98-1.32 90.62-0.93 90.23-0.68L90.23-0.68Q90.08-0.39 89.84-0.17 89.59 0.05 89.4 0.29L89.4 0.29Q89.06 0.49 88.76 0.68 88.47 0.88 88.08 1.07L88.08 1.07Q87.69 0.78 87.32 0.54 86.96 0.29 86.52 0.2L86.52 0.2Q86.22-0.05 86.08-0.29 85.93-0.54 85.54-0.63L85.54-0.63Q85.44-0.78 85.32-0.95 85.2-1.12 85.1-1.32L85.1-1.32Q84.51-1.37 84.17-2.05L84.17-2.05Q84.27-2.34 84.44-2.49 84.61-2.64 84.51-3.03L84.51-3.03Q84.81-3.52 85.22-3.88 85.64-4.25 86.03-4.64L86.03-4.64Q86.47-5.03 86.83-5.44 87.2-5.86 87.64-6.25L87.64-6.25Q87.88-6.49 88.13-6.71 88.37-6.93 88.66-7.18L88.66-7.18Q89.2-7.71 89.76-8.18 90.32-8.64 90.91-9.18L90.91-9.18Q91.69-9.96 92.52-10.67 93.35-11.38 94.04-12.26L94.04-12.26Q93.99-12.45 93.89-12.52 93.79-12.6 93.74-12.74L93.74-12.74Q92.96-13.48 92.2-14.18 91.45-14.89 90.57-15.43L90.57-15.43Q90.28-15.72 90.18-15.92L90.18-15.92Q89.3-16.55 88.49-17.33 87.69-18.12 86.71-18.65L86.71-18.65Q86.52-18.9 86.25-19.07 85.98-19.24 85.73-19.38L85.73-19.38Q85.59-19.63 85.42-19.8 85.25-19.97 85-20.07L85-20.07Q84.61-20.41 84.49-20.63 84.37-20.85 84.07-20.9L84.07-20.9Q83.98-21.14 83.76-21.29 83.54-21.44 83.29-21.63L83.29-21.63Q83.2-21.92 83-22.12L83-22.12Q82.95-22.51 83.05-22.68 83.15-22.85 83.2-22.95L83.2-22.95Q83.15-23.24 82.93-23.39 82.71-23.54 82.71-23.88L82.71-23.88Q82.71-24.07 82.83-24.15 82.95-24.22 83-24.37L83-24.37 83.15-25.1Q83.54-25.39 83.81-25.81 84.07-26.22 84.51-26.46L84.51-26.46Q85-27.2 85.73-27.69L85.73-27.69Q85.98-28.08 86.35-28.32 86.71-28.56 86.96-28.96L86.96-28.96Q87.35-29.2 87.61-29.49 87.88-29.79 88.27-30.03L88.27-30.03Q88.37-30.22 88.49-30.35 88.62-30.47 88.66-30.62L88.66-30.62Q89.98-31.88 90.98-32.81 91.98-33.74 93.06-34.67L93.06-34.67Q93.35-34.91 93.64-35.21 93.94-35.5 94.28-35.74L94.28-35.74Q94.38-35.84 94.52-35.84 94.67-35.84 94.82-35.94L94.82-35.94Q95.4-35.94 95.45-35.99ZM113.61-37.01L113.71-36.96Q113.95-36.08 114.2-35.23 114.44-34.38 114.78-33.54L114.78-33.54Q115.52-33.45 115.69-33.4 115.86-33.35 116.1-33.25L116.1-33.25Q116.64-31.98 116.76-30.54 116.88-29.1 117.13-27.73L117.13-27.73Q118.06-26.51 118.47-25.12 118.89-23.73 119.42-22.31L119.42-22.31Q119.57-21.83 119.62-21.7 119.67-21.58 119.67-21.48L119.67-21.48Q119.96-20.65 120.25-19.78 120.55-18.9 120.89-18.07L120.89-18.07Q121.03-17.63 121.21-17.21 121.38-16.8 121.52-16.41L121.52-16.41Q121.67-15.92 121.79-15.41 121.91-14.89 122.06-14.4L122.06-14.4Q122.4-13.43 122.79-12.45 123.18-11.47 123.57-10.5L123.57-10.5Q123.72-10.16 124.14-8.98 124.55-7.81 124.99-6.52 125.43-5.22 125.8-4.13 126.16-3.03 126.16-2.78L126.16-2.78Q126.16-2.39 126.24-1.98 126.31-1.56 126.36-1.12L126.36-1.12Q126.16-0.63 125.87-0.59 125.58-0.54 125.33-0.63L125.33-0.63Q125.09-0.54 124.87-0.44 124.65-0.34 124.45-0.24L124.45-0.24Q124.31-0.2 124.21-0.1 124.11 0 123.96 0L123.96 0Q123.38 0 123.21 0.12 123.04 0.24 122.7 0.24L122.7 0.24Q122.26 0.1 122.13 0.22 122.01 0.34 121.91 0.39L121.91 0.39Q121.72 0.49 121.47 0.49 121.23 0.49 120.99 0.54L120.99 0.54Q120.89 0.34 120.82 0.15 120.74-0.05 120.6-0.29L120.6-0.29Q120.06-1.07 119.84-1.81 119.62-2.54 119.47-2.98L119.47-2.98Q119.23-3.52 119.06-4.05 118.89-4.59 118.64-5.13L118.64-5.13Q118.35-5.03 118.11-4.91 117.86-4.79 117.71-4.59L117.71-4.59Q117.13-4.59 117.13-4.44 117.13-4.3 117.03-4.15L117.03-4.15Q116.74-4.05 116.57-3.96 116.4-3.86 116.01-3.91L116.01-3.91Q115.76-3.66 115.52-3.49 115.27-3.32 114.88-3.27L114.88-3.27Q114.49-2.88 114.08-2.61 113.66-2.34 113.12-2.49L113.12-2.49Q112.44-2.34 111.76-2.22 111.07-2.1 110.39-2.1L110.39-2.1Q109.61-2.34 109.41-2.54 109.22-2.73 108.83-2.73L108.83-2.73Q108.88-3.42 108.53-3.66L108.53-3.66Q108.53-3.81 108.56-4.13 108.58-4.44 108.68-4.54L108.68-4.54Q109.32-4.83 109.41-5.18 109.51-5.52 109.95-5.62L109.95-5.62Q110.05-5.81 110.17-5.98 110.29-6.15 110.39-6.35L110.39-6.35Q110.63-6.45 110.81-6.49 110.98-6.54 111.07-6.79L111.07-6.79Q111.32-6.79 111.81-7.1 112.29-7.42 112.44-7.62L112.44-7.62Q112.83-7.76 112.93-7.89 113.03-8.01 113.17-8.11L113.17-8.11Q113.66-8.06 113.81-8.2L113.81-8.2Q114.2-8.01 114.69-8.01L114.69-8.01Q114.88-8.01 115.03-8.03 115.18-8.06 115.37-8.06L115.37-8.06Q115.76-8.45 116.37-8.57 116.98-8.69 117.37-9.08L117.37-9.08Q117.23-9.47 117.13-10.03 117.03-10.6 116.79-10.94L116.79-10.94Q116.69-11.57 116.47-12.16 116.25-12.74 116.1-13.28L116.1-13.28Q115.57-15.33 114.83-17.29 114.1-19.24 113.61-21.29L113.61-21.29Q113.52-21.53 113.39-21.8 113.27-22.07 113.17-22.31L113.17-22.31Q112.93-21.73 112.93-21.66 112.93-21.58 112.83-21.48L112.83-21.48Q112.78-21.24 112.73-21.07 112.69-20.9 112.59-20.65L112.59-20.65Q112.44-20.26 112.32-19.8 112.2-19.34 112.1-18.95L112.1-18.95Q111.86-18.12 111.66-17.21 111.46-16.31 111.22-15.43L111.22-15.43Q110.73-13.92 110.22-12.43 109.71-10.94 109.22-9.42L109.22-9.42Q109.12-8.74 109-8.37 108.88-8.01 108.75-7.64 108.63-7.28 108.56-6.93 108.49-6.59 108.49-6.4L108.49-6.4Q107.8-4.83 107.34-3.22 106.87-1.61 106.19-0.1L106.19-0.1Q106 0 105.85 0.15 105.7 0.29 105.51 0.29L105.51 0.29Q105.12 0.29 105.09 0.1 105.07-0.1 104.87-0.1L104.87-0.1Q104.68-0.1 104.53-0.02 104.38 0.05 104.24 0.15L104.24 0.15Q103.99 0.05 103.68 0.02 103.36 0 103.21-0.2L103.21-0.2Q102.87 0.05 102.53 0.05L102.53 0.05Q102.14 0.05 101.75-0.2L101.75-0.2Q101.45-0.1 101.16-0.1L101.16-0.1Q101.02-0.1 100.82-0.15 100.62-0.2 100.53-0.29L100.53-0.29Q100.48-0.49 100.48-0.68 100.48-0.88 100.48-1.12L100.48-1.12Q100.48-1.61 100.38-1.86L100.38-1.86Q101.26-4.35 102.09-6.91 102.92-9.47 103.75-12.11L103.75-12.11Q104.19-13.33 104.6-14.5 105.02-15.67 105.41-16.89L105.41-16.89Q105.61-17.58 105.75-18.19 105.9-18.8 106.14-19.38L106.14-19.38Q106.53-20.65 106.95-21.95 107.36-23.24 107.7-24.51L107.7-24.51Q107.9-24.66 107.95-24.85 108-25.05 108.1-25.29L108.1-25.29 108.05-25.93Q108.39-26.42 108.51-26.78 108.63-27.15 108.68-27.54L108.68-27.54Q108.93-28.13 109.12-28.81 109.32-29.49 109.41-30.08L109.41-30.08Q109.51-30.86 109.54-31.86 109.56-32.86 109.8-33.54L109.8-33.54Q109.9-33.74 109.98-33.81 110.05-33.89 110.05-34.13L110.05-34.13Q110.15-34.23 110.27-34.35 110.39-34.47 110.44-34.62L110.44-34.62Q110.68-35.01 110.61-35.3 110.54-35.6 110.54-35.94L110.54-35.94Q110.98-36.18 110.93-36.38 110.88-36.57 110.88-36.77L110.88-36.77Q110.88-37.01 111.2-37.23 111.51-37.45 111.61-37.7L111.61-37.7Q111.9-37.65 112.2-37.62 112.49-37.6 112.78-37.65L112.78-37.65Q113.12-37.01 113.61-37.01L113.61-37.01ZM149.89 0.15L149.55 0.1Q149.3 0.68 148.52 1.07L148.52 1.07Q148.18 0.88 147.91 0.61 147.64 0.34 147.25 0.2L147.25 0.2Q146.96-0.39 146.81-0.51 146.67-0.63 146.47-0.68L146.47-0.68Q146.18-0.93 145.98-1.27 145.79-1.61 145.54-1.86L145.54-1.86Q145.45-1.9 145.18-2.17 144.91-2.44 144.62-2.73 144.32-3.03 144.08-3.3 143.84-3.56 143.79-3.56L143.79-3.56Q143.35-3.86 143.01-4.2L143.01-4.2Q142.91-4.35 142.79-4.52 142.66-4.69 142.57-4.79L142.57-4.79Q142.18-4.93 141.93-5.2 141.69-5.47 141.47-5.81 141.25-6.15 140.98-6.42 140.71-6.69 140.37-6.84L140.37-6.84Q140.03-7.32 139.54-7.64 139.05-7.96 138.71-8.4L138.71-8.4Q138.42-8.74 138.07-9.06 137.73-9.38 137.34-9.67L137.34-9.67Q137.15-9.96 136.71-10.52 136.27-11.08 135.93-11.13L135.93-11.13Q135.88-10.01 135.85-8.89 135.83-7.76 135.78-6.64L135.78-6.64Q135.78-6.05 135.8-5.42 135.83-4.79 135.78-4.15L135.78-4.15Q135.73-3.91 135.66-3.64 135.58-3.37 135.58-3.08L135.58-3.08Q135.58-2.49 135.51-2.32 135.44-2.15 135.39-2L135.39-2Q135.24-1.51 135.12-0.81 135-0.1 134.61 0.29L134.61 0.29Q134.07 0.34 133.78 0.2L133.78 0.2Q133.68 0.29 133.58 0.39 133.48 0.49 133.29 0.49L133.29 0.49Q133.19 0.39 132.97 0.32 132.75 0.24 132.65 0.24L132.65 0.24Q132.41 0.24 132.14 0.34 131.87 0.44 131.63 0.44L131.63 0.44Q131.38 0.44 131.21 0.32 131.04 0.2 130.8 0.2L130.8 0.2Q130.65 0.2 130.46 0.34 130.26 0.49 130.07 0.49L130.07 0.49Q129.82 0.49 129.65 0.42 129.48 0.34 129.28 0.29L129.28 0.29Q129.28 0.15 129.31 0 129.33-0.15 129.28-0.29L129.28-0.29 129.09-1.51Q129.14-1.86 129.21-2.2 129.28-2.54 129.33-2.83L129.33-2.83Q129.38-3.61 129.41-4.32 129.43-5.03 129.43-5.76L129.43-5.76Q129.43-7.03 129.41-8.25 129.38-9.47 129.43-10.74L129.43-10.74Q129.48-11.18 129.55-11.65 129.63-12.11 129.63-12.55L129.63-12.55Q129.63-13.82 129.77-15.04 129.92-16.26 130.02-17.53L130.02-17.53Q130.11-18.51 130.11-19.43 130.11-20.36 130.11-21.29L130.11-21.29Q130.11-23.1 130.07-24.88 130.02-26.66 130.02-28.42L130.02-28.42Q130.02-29 130.07-30 130.11-31.01 129.97-31.54L129.97-31.54Q130.02-32.96 129.97-34.33L129.97-34.33Q130.16-34.42 130.19-34.62 130.21-34.81 130.21-35.01L130.21-35.01 130.21-35.69Q130.65-36.18 130.94-36.18L130.94-36.18Q131.19-36.18 131.43-36.13 131.68-36.08 131.92-35.94L131.92-35.94Q132.56-36.08 132.75-35.99 132.95-35.89 133.19-35.79L133.19-35.79Q133.58-35.84 133.73-36.13L133.73-36.13Q134.26-36.04 134.26-35.89 134.26-35.74 134.36-35.6L134.36-35.6Q134.85-35.55 135.02-35.67 135.19-35.79 135.44-35.84L135.44-35.84Q135.88-35.74 136.02-35.6L136.02-35.6Q136.02-35.3 136.17-34.94 136.32-34.57 136.32-33.98L136.32-33.98Q136.32-33.54 136.27-33.13 136.22-32.71 136.22-32.32L136.22-32.32Q136.22-31.64 136.27-31.01 136.32-30.37 136.32-29.69L136.32-29.69Q136.32-29.49 136.29-29.32 136.27-29.15 136.27-28.96L136.27-28.96Q136.27-27.1 136.36-25.2 136.46-23.29 136.46-21.39L136.46-21.39Q136.46-21.29 136.41-21.12 136.36-20.95 136.46-20.85L136.46-20.85Q137.29-21.73 137.88-22.73 138.46-23.73 139.15-24.71L139.15-24.71Q139.73-25.44 140.34-26.46 140.95-27.49 141.39-28.32L141.39-28.32Q141.59-28.61 141.74-28.91 141.88-29.2 142.08-29.49L142.08-29.49Q142.18-29.74 142.35-29.96 142.52-30.18 142.61-30.47L142.61-30.47Q142.86-30.86 143.05-31.23 143.25-31.59 143.49-31.98L143.49-31.98Q143.74-32.37 144.01-32.69 144.27-33.01 144.52-33.35L144.52-33.35Q144.91-33.98 145.35-34.64 145.79-35.3 146.13-35.99L146.13-35.99Q146.62-36.23 147.01-36.55 147.4-36.87 147.84-37.11L147.84-37.11Q148.33-36.47 148.55-36.23 148.77-35.99 149.16-35.94L149.16-35.94Q149.26-35.79 149.28-35.6 149.3-35.4 149.45-35.3L149.45-35.3Q150.04-35.25 150.13-35.3L150.13-35.3Q150.28-35.06 150.55-34.94 150.82-34.81 151.06-34.72L151.06-34.72Q151.06-34.57 151.06-34.4 151.06-34.23 151.11-34.13L151.11-34.13Q151.7-33.89 151.7-33.2L151.7-33.2Q150.77-31.54 149.67-30.05 148.57-28.56 147.74-26.86L147.74-26.86Q147.5-26.32 147.18-25.83 146.86-25.34 146.67-24.8L146.67-24.8Q146.33-24.46 146.13-24.1 145.93-23.73 145.64-23.39L145.64-23.39Q145.45-23.14 145.25-22.88 145.06-22.61 144.86-22.36L144.86-22.36Q144.47-21.83 144.15-21.26 143.84-20.7 143.4-20.17L143.4-20.17Q143.1-19.68 142.71-19.19L142.71-19.19Q142.32-18.65 142.05-17.99 141.78-17.33 141.39-16.8L141.39-16.8Q141-16.21 140.98-15.94 140.95-15.67 140.71-15.04L140.71-15.04Q141.05-14.5 141.49-14.06 141.93-13.62 142.42-13.23L142.42-13.23Q142.81-12.7 143.32-12.28 143.84-11.87 144.37-11.38L144.37-11.38Q144.57-11.18 144.71-11.01 144.86-10.84 145.06-10.69L145.06-10.69Q145.59-10.11 146.35-9.57 147.11-9.03 147.79-8.54L147.79-8.54Q148.33-8.06 149.13-7.35 149.94-6.64 150.82-5.83 151.7-5.03 152.38-4.32 153.06-3.61 153.06-3.42L153.06-3.42Q152.82-2.69 152.5-2.51 152.18-2.34 152.04-2L152.04-2Q151.75-1.9 151.75-1.81 151.75-1.71 151.6-1.46L151.6-1.46Q151.26-1.22 151.01-0.9 150.77-0.59 150.52-0.29L150.52-0.29Q150.33-0.2 150.16-0.12 149.99-0.05 149.89 0.15L149.89 0.15ZM165.56-37.01L165.66-36.96Q165.9-36.08 166.15-35.23 166.39-34.38 166.73-33.54L166.73-33.54Q167.47-33.45 167.64-33.4 167.81-33.35 168.05-33.25L168.05-33.25Q168.59-31.98 168.71-30.54 168.83-29.1 169.08-27.73L169.08-27.73Q170-26.51 170.42-25.12 170.83-23.73 171.37-22.31L171.37-22.31Q171.52-21.83 171.57-21.7 171.62-21.58 171.62-21.48L171.62-21.48Q171.91-20.65 172.2-19.78 172.49-18.9 172.84-18.07L172.84-18.07Q172.98-17.63 173.15-17.21 173.32-16.8 173.47-16.41L173.47-16.41Q173.62-15.92 173.74-15.41 173.86-14.89 174.01-14.4L174.01-14.4Q174.35-13.43 174.74-12.45 175.13-11.47 175.52-10.5L175.52-10.5Q175.67-10.16 176.08-8.98 176.5-7.81 176.94-6.52 177.38-5.22 177.74-4.13 178.11-3.03 178.11-2.78L178.11-2.78Q178.11-2.39 178.18-1.98 178.26-1.56 178.31-1.12L178.31-1.12Q178.11-0.63 177.82-0.59 177.52-0.54 177.28-0.63L177.28-0.63Q177.04-0.54 176.82-0.44 176.6-0.34 176.4-0.24L176.4-0.24Q176.25-0.2 176.16-0.1 176.06 0 175.91 0L175.91 0Q175.33 0 175.16 0.12 174.99 0.24 174.64 0.24L174.64 0.24Q174.2 0.1 174.08 0.22 173.96 0.34 173.86 0.39L173.86 0.39Q173.67 0.49 173.42 0.49 173.18 0.49 172.93 0.54L172.93 0.54Q172.84 0.34 172.76 0.15 172.69-0.05 172.54-0.29L172.54-0.29Q172.01-1.07 171.79-1.81 171.57-2.54 171.42-2.98L171.42-2.98Q171.18-3.52 171.01-4.05 170.83-4.59 170.59-5.13L170.59-5.13Q170.3-5.03 170.05-4.91 169.81-4.79 169.66-4.59L169.66-4.59Q169.08-4.59 169.08-4.44 169.08-4.3 168.98-4.15L168.98-4.15Q168.69-4.05 168.52-3.96 168.34-3.86 167.95-3.91L167.95-3.91Q167.71-3.66 167.47-3.49 167.22-3.32 166.83-3.27L166.83-3.27Q166.44-2.88 166.03-2.61 165.61-2.34 165.07-2.49L165.07-2.49Q164.39-2.34 163.71-2.22 163.02-2.1 162.34-2.1L162.34-2.1Q161.56-2.34 161.36-2.54 161.17-2.73 160.78-2.73L160.78-2.73Q160.82-3.42 160.48-3.66L160.48-3.66Q160.48-3.81 160.51-4.13 160.53-4.44 160.63-4.54L160.63-4.54Q161.26-4.83 161.36-5.18 161.46-5.52 161.9-5.62L161.9-5.62Q162-5.81 162.12-5.98 162.24-6.15 162.34-6.35L162.34-6.35Q162.58-6.45 162.75-6.49 162.92-6.54 163.02-6.79L163.02-6.79Q163.27-6.79 163.75-7.1 164.24-7.42 164.39-7.62L164.39-7.62Q164.78-7.76 164.88-7.89 164.98-8.01 165.12-8.11L165.12-8.11Q165.61-8.06 165.76-8.2L165.76-8.2Q166.15-8.01 166.64-8.01L166.64-8.01Q166.83-8.01 166.98-8.03 167.12-8.06 167.32-8.06L167.32-8.06Q167.71-8.45 168.32-8.57 168.93-8.69 169.32-9.08L169.32-9.08Q169.17-9.47 169.08-10.03 168.98-10.6 168.74-10.94L168.74-10.94Q168.64-11.57 168.42-12.16 168.2-12.74 168.05-13.28L168.05-13.28Q167.51-15.33 166.78-17.29 166.05-19.24 165.56-21.29L165.56-21.29Q165.46-21.53 165.34-21.8 165.22-22.07 165.12-22.31L165.12-22.31Q164.88-21.73 164.88-21.66 164.88-21.58 164.78-21.48L164.78-21.48Q164.73-21.24 164.68-21.07 164.63-20.9 164.54-20.65L164.54-20.65Q164.39-20.26 164.27-19.8 164.15-19.34 164.05-18.95L164.05-18.95Q163.8-18.12 163.61-17.21 163.41-16.31 163.17-15.43L163.17-15.43Q162.68-13.92 162.17-12.43 161.65-10.94 161.17-9.42L161.17-9.42Q161.07-8.74 160.95-8.37 160.82-8.01 160.7-7.64 160.58-7.28 160.51-6.93 160.43-6.59 160.43-6.4L160.43-6.4Q159.75-4.83 159.29-3.22 158.82-1.61 158.14-0.1L158.14-0.1Q157.94 0 157.8 0.15 157.65 0.29 157.46 0.29L157.46 0.29Q157.07 0.29 157.04 0.1 157.02-0.1 156.82-0.1L156.82-0.1Q156.63-0.1 156.48-0.02 156.33 0.05 156.19 0.15L156.19 0.15Q155.94 0.05 155.62 0.02 155.31 0 155.16-0.2L155.16-0.2Q154.82 0.05 154.48 0.05L154.48 0.05Q154.09 0.05 153.7-0.2L153.7-0.2Q153.4-0.1 153.11-0.1L153.11-0.1Q152.96-0.1 152.77-0.15 152.57-0.2 152.48-0.29L152.48-0.29Q152.43-0.49 152.43-0.68 152.43-0.88 152.43-1.12L152.43-1.12Q152.43-1.61 152.33-1.86L152.33-1.86Q153.21-4.35 154.04-6.91 154.87-9.47 155.7-12.11L155.7-12.11Q156.14-13.33 156.55-14.5 156.97-15.67 157.36-16.89L157.36-16.89Q157.55-17.58 157.7-18.19 157.85-18.8 158.09-19.38L158.09-19.38Q158.48-20.65 158.9-21.95 159.31-23.24 159.65-24.51L159.65-24.51Q159.85-24.66 159.9-24.85 159.95-25.05 160.04-25.29L160.04-25.29 159.99-25.93Q160.34-26.42 160.46-26.78 160.58-27.15 160.63-27.54L160.63-27.54Q160.87-28.13 161.07-28.81 161.26-29.49 161.36-30.08L161.36-30.08Q161.46-30.86 161.48-31.86 161.51-32.86 161.75-33.54L161.75-33.54Q161.85-33.74 161.92-33.81 162-33.89 162-34.13L162-34.13Q162.09-34.23 162.22-34.35 162.34-34.47 162.39-34.62L162.39-34.62Q162.63-35.01 162.56-35.3 162.49-35.6 162.49-35.94L162.49-35.94Q162.92-36.18 162.88-36.38 162.83-36.57 162.83-36.77L162.83-36.77Q162.83-37.01 163.14-37.23 163.46-37.45 163.56-37.7L163.56-37.7Q163.85-37.65 164.15-37.62 164.44-37.6 164.73-37.65L164.73-37.65Q165.07-37.01 165.56-37.01L165.56-37.01ZM182.55-6.74L182.55-6.74Q183.04-6.79 183.26-6.42 183.48-6.05 183.77-5.96L183.77-5.96Q184.21-5.37 184.38-5.2 184.55-5.03 184.5-4.64L184.5-4.64Q184.75-4.54 184.94-4.42 185.14-4.3 185.38-4.1L185.38-4.1Q185.53-3.81 185.53-3.47L185.53-3.47Q185.53-3.32 185.53-3.15 185.53-2.98 185.48-2.83L185.48-2.83Q185.24-2.59 184.99-2.37 184.75-2.15 184.55-1.86L184.55-1.86Q183.97-1.46 183.53-1.05 183.09-0.63 182.4-0.24L182.4-0.24Q182.11-0.05 181.87 0.15 181.62 0.34 181.23 0.49L181.23 0.49Q181.23 0.29 181.06 0.22 180.89 0.15 180.79 0.05L180.79 0.05Q180.79-0.54 180.11-0.78L180.11-0.78Q179.96-1.22 179.65-1.54 179.33-1.86 179.13-2.25L179.13-2.25Q179.13-2.54 179.01-2.69 178.89-2.83 178.79-2.98L178.79-2.98Q178.3-2.98 178.18-3.32 178.06-3.66 178.06-4.05L178.06-4.05Q178.16-4.44 178.3-4.59 178.45-4.74 178.55-4.98L178.55-4.98Q179.08-5.47 179.82-6.18 180.55-6.88 181.09-7.18L181.09-7.18Q181.18-7.28 181.45-7.3 181.72-7.32 181.87-7.32L181.87-7.32 182.4-7.32Q182.5-7.08 182.58-7.03 182.65-6.98 182.55-6.74ZM196.51-13.33L196.51-13.33Q196.61-13.09 197.25-12.28 197.88-11.47 198.69-10.52 199.49-9.57 200.27-8.69 201.05-7.81 201.35-7.42L201.35-7.42Q202.27-6.05 203.25-4.74 204.23-3.42 205.11-2L205.11-2Q205.35-1.76 205.5-1.39 205.64-1.03 205.64-0.63L205.64-0.63Q205.64-0.2 205.42-0.17 205.2-0.15 204.96-0.05L204.96-0.05Q204.47 0.29 204.08 0.34 203.69 0.39 203.45 0.39L203.45 0.39Q202.91 0.39 202.27 0.37 201.64 0.34 201.2 0.44L201.2 0.44Q201.05 0.49 200.86 0.61 200.66 0.73 200.57 0.73L200.57 0.73Q200.18 0.73 200 0.61 199.83 0.49 199.54 0.39L199.54 0.39Q199.15-0.05 198.83-0.54 198.52-1.03 198.17-1.51L198.17-1.51Q197.88-1.86 197.54-2.12 197.2-2.39 196.9-2.78L196.9-2.78Q196.12-3.91 195.32-4.93 194.51-5.96 193.68-6.98L193.68-6.98Q193.29-7.52 192.83-8.01 192.36-8.5 191.97-8.98L191.97-8.98Q191.58-9.52 191.24-10.11 190.9-10.69 190.51-11.23L190.51-11.23Q190.21-11.72 189.68-12.43 189.14-13.13 188.55-13.87 187.97-14.6 187.36-15.26 186.75-15.92 186.31-16.26L186.31-16.26Q186.31-16.6 186.11-16.75 185.92-16.89 185.67-17.09L185.67-17.09Q185.58-17.33 185.43-17.55 185.28-17.77 185.28-18.07L185.28-18.07Q185.28-18.26 185.33-18.41 185.38-18.55 185.43-18.7L185.43-18.7Q185.53-18.9 185.55-19.07 185.58-19.24 185.67-19.43L185.67-19.43Q185.92-20.07 186.38-20.56 186.85-21.04 187.09-21.68L187.09-21.68Q187.14-21.88 187.14-22.05 187.14-22.22 187.24-22.41L187.24-22.41Q187.38-22.71 187.68-23 187.97-23.29 188.21-23.63L188.21-23.63Q188.46-24.07 188.7-24.51 188.94-24.95 189.19-25.39L189.19-25.39Q189.87-26.51 190.7-27.56 191.53-28.61 192.27-29.64L192.27-29.64Q192.95-30.62 193.53-31.57 194.12-32.52 194.8-33.5L194.8-33.5Q195.15-33.98 195.59-34.59 196.02-35.21 196.49-35.79 196.95-36.38 197.44-36.89 197.93-37.4 198.42-37.65L198.42-37.65Q199.25-37.74 199.49-37.38 199.74-37.01 200.18-37.01L200.18-37.01Q200.86-36.87 201.1-36.57 201.35-36.28 201.59-36.04L201.59-36.04Q202.23-36.04 202.67-35.79 203.11-35.55 203.54-35.06L203.54-35.06Q203.35-34.52 203.03-34.08 202.71-33.64 202.47-33.15L202.47-33.15Q202.08-33.01 201.91-32.67 201.74-32.32 201.4-32.08L201.4-32.08Q200.86-31.25 200.32-30.44 199.78-29.64 199.25-28.91L199.25-28.91Q199-28.61 198.69-28.44 198.37-28.27 198.17-27.93L198.17-27.93Q198.08-27.78 198.03-27.61 197.98-27.44 197.88-27.29L197.88-27.29Q197.29-26.37 196.56-25.49 195.83-24.61 195.29-23.63L195.29-23.63Q195.05-23.29 194.9-22.92 194.76-22.56 194.56-22.22L194.56-22.22Q194.36-21.92 194-21.39 193.63-20.85 193.27-20.29 192.9-19.73 192.63-19.21 192.36-18.7 192.36-18.36L192.36-18.36Q192.41-18.12 193-17.38 193.58-16.65 194.29-15.82 195-14.99 195.66-14.26 196.32-13.53 196.51-13.33ZM231.57-19.38L231.57-19.38Q231.47-19.19 231.37-19.02 231.28-18.85 231.23-18.65L231.23-18.65Q231.42-18.46 231.59-18.24 231.76-18.02 231.76-17.77L231.76-17.77Q231.76-17.58 231.69-17.41 231.62-17.24 231.67-17.09L231.67-17.09Q231.47-16.75 231.25-16.46 231.03-16.16 230.93-15.82L230.93-15.82Q230.74-15.63 230.62-15.43 230.5-15.23 230.4-15.04L230.4-15.04Q230.15-14.94 230.08-14.72 230.01-14.5 229.81-14.36L229.81-14.36Q229.76-14.16 229.32-13.43 228.88-12.7 228.35-11.87 227.81-11.04 227.32-10.25 226.83-9.47 226.64-9.23L226.64-9.23Q226.54-8.98 226.42-8.84 226.3-8.69 226.15-8.5L226.15-8.5Q226.05-8.35 226-8.18 225.95-8.01 225.86-7.91L225.86-7.91Q225.76-7.71 225.64-7.57 225.51-7.42 225.42-7.18L225.42-7.18Q224.93-6.54 224.44-5.66 223.95-4.79 223.51-4.1L223.51-4.1Q223.27-3.71 223.05-3.32 222.83-2.93 222.58-2.54L222.58-2.54Q222.34-2.15 222.1-1.81 221.85-1.46 221.61-1.07L221.61-1.07Q221.22-0.78 220.92-0.37 220.63 0.05 220.24 0.34L220.24 0.34Q219.61 0.34 219.46-0.24L219.46-0.24Q218.83-0.39 218.83-0.24 218.83-0.1 218.83 0L218.83 0Q218.63 0.1 218.56 0.29 218.48 0.49 218.29 0.59L218.29 0.59Q217.9 0.49 217.63 0.27 217.36 0.05 216.87 0.1L216.87 0.1Q216.68-0.2 216.43-0.42 216.19-0.63 215.99-0.88L215.99-0.88Q215.9-1.17 215.72-1.37 215.55-1.56 215.41-1.76L215.41-1.76Q215.26-2 215.11-2.2 214.97-2.39 214.82-2.59L214.82-2.59Q214.48-3.03 214.16-3.44 213.84-3.86 213.6-4.3L213.6-4.3Q213.21-4.88 212.84-5.49 212.48-6.1 212.09-6.69L212.09-6.69Q211.89-6.98 211.7-7.28 211.5-7.57 211.35-7.86L211.35-7.86Q211.26-8.11 211.09-8.45 210.92-8.79 210.67-8.89L210.67-8.89Q210.57-9.28 210.33-9.47 210.08-9.67 209.84-9.96L209.84-9.96Q209.5-10.35 209.21-10.82 208.91-11.28 208.62-11.77L208.62-11.77Q207.64-13.13 206.79-14.45 205.93-15.77 205.1-17.19L205.1-17.19Q205.35-17.97 205.35-18.36 205.35-18.75 205.59-18.99L205.59-18.99Q205.59-19.19 205.69-19.58L205.69-19.58Q206.33-20.65 206.91-21.53L206.91-21.53Q207.45-22.36 207.67-22.9 207.89-23.44 208.13-24.02L208.13-24.02Q208.38-24.17 208.52-24.39 208.67-24.61 208.91-24.8L208.91-24.8Q209.01-25.34 209.35-25.71 209.69-26.07 209.79-26.61L209.79-26.61Q210.23-26.95 210.28-27.39L210.28-27.39Q210.92-27.83 211.06-28.56L211.06-28.56Q211.45-28.96 211.72-29.44 211.99-29.93 212.23-30.47L212.23-30.47Q212.82-30.96 213.16-31.74L213.16-31.74Q213.45-31.93 213.6-32.28 213.75-32.62 213.99-32.86L213.99-32.86Q214.38-33.5 214.6-33.91 214.82-34.33 215.07-34.77L215.07-34.77Q215.41-34.77 215.5-35.01 215.6-35.25 215.9-35.21L215.9-35.21Q215.9-35.64 216.14-35.99L216.14-35.99Q216.24-36.04 216.43-36.11 216.63-36.18 216.63-36.28L216.63-36.28Q216.53-36.87 216.68-36.96 216.82-37.06 216.92-37.16L216.92-37.16Q217.46-37.06 217.65-37.01 217.85-36.96 218.29-36.67L218.29-36.67Q218.78-36.67 218.97-36.47 219.17-36.28 219.41-36.18L219.41-36.18Q219.61-35.99 219.73-35.79 219.85-35.6 220.09-35.5L220.09-35.5Q220.49-34.96 220.92-34.33 221.36-33.69 221.75-33.15L221.75-33.15Q222.29-32.42 222.85-31.76 223.42-31.1 223.9-30.32L223.9-30.32Q224.05-30.08 224.44-29.47 224.83-28.86 225.32-28.17 225.81-27.49 226.2-26.93 226.59-26.37 226.74-26.27L226.74-26.27Q226.88-26.03 227.37-25.34 227.86-24.66 228.42-23.9 228.98-23.14 229.52-22.46 230.06-21.78 230.25-21.58L230.25-21.58Q230.79-20.85 231.06-20.39 231.33-19.92 231.57-19.38ZM220.39-10.21L220.39-10.21Q220.92-10.94 221.22-11.52 221.51-12.11 221.8-12.7L221.8-12.7Q222.29-13.28 222.39-13.53 222.49-13.77 222.63-14.01L222.63-14.01Q223.02-14.6 223.44-15.19 223.85-15.77 224.1-16.46L224.1-16.46Q224.39-16.65 224.54-16.94 224.68-17.24 224.98-17.48L224.98-17.48Q224.68-18.51 224.29-19.07 223.9-19.63 223.51-20.17L223.51-20.17Q223.37-20.41 223.22-20.65 223.07-20.9 222.93-21.14L222.93-21.14Q222.73-21.29 222.61-21.44 222.49-21.58 222.34-21.73L222.34-21.73Q222.24-21.97 222.05-22.36L222.05-22.36Q221.85-22.61 221.66-22.8 221.46-23 221.32-23.29L221.32-23.29Q221.12-23.49 220.83-23.83 220.53-24.17 220.22-24.58 219.9-25 219.66-25.37 219.41-25.73 219.26-25.98L219.26-25.98Q219.17-26.22 219.09-26.39 219.02-26.56 218.92-26.76L218.92-26.76Q218.68-27.1 218.43-27.37 218.19-27.64 217.95-27.98L217.95-27.98Q217.8-27.88 217.68-27.86 217.56-27.83 217.46-27.73L217.46-27.73Q217.12-27.1 216.7-26.56 216.29-26.03 215.9-25.39L215.9-25.39Q215.55-24.8 215.21-24.19 214.87-23.58 214.53-23L214.53-23Q214.28-22.66 214.06-22.34 213.84-22.02 213.6-21.63L213.6-21.63Q213.36-21.29 213.19-20.92 213.01-20.56 212.77-20.21L212.77-20.21Q212.38-19.73 212.14-19.34 211.89-18.95 211.65-18.41L211.65-18.41Q211.79-18.12 212.11-17.6 212.43-17.09 212.77-16.58 213.11-16.06 213.38-15.63 213.65-15.19 213.7-15.04L213.7-15.04Q214.09-14.7 214.33-14.28 214.58-13.87 214.97-13.48L214.97-13.48Q215.16-13.09 215.41-12.79 215.65-12.5 215.9-12.16L215.9-12.16Q216.14-11.82 216.53-11.16 216.92-10.5 217.31-9.81 217.7-9.13 218.09-8.54 218.48-7.96 218.73-7.81L218.73-7.81Q219.22-8.35 219.53-9.01 219.85-9.67 220.39-10.21Z" fill="#ffffff" data-fill-palette-color="primary"></path></g></svg></g></svg></g></svg></g></svg></g><g><svg viewBox="0 0 134.14758732029918 91.5615482828283" height="91.5615482828283" width="134.14758732029918"><g><svg version="1.1" xmlns:rdf="http://www.w3.org/1999/02/22-rdf-syntax-ns#" xmlns:cc="http://creativecommons.org/ns#" xmlns:sodipodi="http://sodipodi.sourceforge.net/DTD/sodipodi-0.dtd" xmlns:dc="http://purl.org/dc/elements/1.1/" xmlns:inkscape="http://www.inkscape.org/namespaces/inkscape" xmlns:svg="http://www.w3.org/2000/svg" xmlns="http://www.w3.org/2000/svg" xmlns:xlink="http://www.w3.org/1999/xlink" x="0" y="0" viewBox="0 9.605661542007311 100 68.25433845799269" enable-background="new 0 22.139 100 55.721" xml:space="preserve" width="134.14758732029918" height="91.5615482828283" class="icon-icon-0" data-fill-palette-color="accent" id="icon-0"><path d="M41.645 52.773c-5.144 0-9.557 3.094-11.493 7.524h-6.116c-1.936-4.431-6.349-7.524-11.493-7.524C5.615 52.773 0 58.391 0 65.317 0 72.246 5.616 77.86 12.543 77.86c5.144 0 9.557-3.097 11.493-7.527h6.116c1.936 4.431 6.349 7.527 11.493 7.527 6.928 0 12.548-5.614 12.548-12.543C54.192 58.391 48.573 52.773 41.645 52.773zM12.543 70.333c-2.771 0-5.021-2.244-5.02-5.016 0-2.771 2.249-5.02 5.02-5.02 2.771 0 5.016 2.249 5.016 5.02C17.559 68.089 15.315 70.333 12.543 70.333zM41.645 70.333c-2.771 0-5.015-2.245-5.015-5.016h0c0-2.771 2.245-5.021 5.016-5.021 2.771 0 5.02 2.249 5.02 5.021C46.665 68.088 44.416 70.333 41.645 70.333z" fill="#00d1cd" data-fill-palette-color="accent"></path><path d="M12.543 62.537c-1.534 0-2.775 1.246-2.775 2.78 0 0.049-0.002 0.096 0 0.144 0.075 1.468 1.29 2.633 2.776 2.633 1.535 0 2.777-1.242 2.777-2.776S14.078 62.537 12.543 62.537z" fill="#00d1cd" data-fill-palette-color="accent"></path><circle cx="41.645" cy="65.315" r="2.8" fill="#00d1cd" data-fill-palette-color="accent"></circle><path d="M44.194 50.021c1.658 0.222 3.302 0.765 4.84 1.653 1.54 0.889 2.827 2.045 3.848 3.371l0.873-1.514 0.875-1.515 0.874-1.514c-1.659-0.221-3.304-0.758-4.844-1.646-1.538-0.888-2.831-2.04-3.852-3.365l-0.874 1.514-0.866 1.5L44.194 50.021 44.194 50.021z" fill="#00d1cd" data-fill-palette-color="accent"></path><path d="M87.457 22.139c-5.145 0-9.559 3.098-11.493 7.528h-6.116c-1.935-4.43-6.349-7.528-11.492-7.528-6.929 0-12.548 5.615-12.548 12.543s5.619 12.544 12.548 12.544c5.144 0 9.558-3.094 11.492-7.523h6.116c1.935 4.43 6.349 7.523 11.493 7.523 6.927 0 12.543-5.616 12.543-12.544C100 27.754 94.386 22.139 87.457 22.139zM58.355 39.703c-2.771 0-5.021-2.25-5.021-5.021 0-2.771 2.249-5.015 5.021-5.015s5.016 2.245 5.017 5.015C63.371 37.454 61.127 39.703 58.355 39.703zM87.457 39.703c-2.771 0-5.017-2.25-5.017-5.021 0-2.771 2.245-5.015 5.017-5.015s5.021 2.244 5.02 5.015h0.001C92.478 37.453 90.229 39.703 87.457 39.703z" fill="#00d1cd" data-fill-palette-color="accent"></path><path d="M87.457 31.906c-1.534 0-2.775 1.242-2.775 2.776-0.001 1.535 1.241 2.781 2.775 2.781 1.533 0 2.775-1.246 2.775-2.781 0-0.047 0.002-0.095 0-0.143C90.158 33.072 88.943 31.906 87.457 31.906z" fill="#00d1cd" data-fill-palette-color="accent"></path><circle cx="58.355" cy="34.685" r="2.8" fill="#00d1cd" data-fill-palette-color="accent"></circle></svg></g></svg></g></svg></g><defs></defs></svg><rect width="395.52" height="63.87882059132268" fill="none" stroke="none" visibility="hidden"></rect></g></svg></g></svg>