<?xml version="1.0" encoding="UTF-8" standalone="no" ?>
<!DOCTYPE svg PUBLIC "-//W3C//DTD SVG 1.1//EN" "http://www.w3.org/Graphics/SVG/1.1/DTD/svg11.dtd">
<svg xmlns="http://www.w3.org/2000/svg" xmlns:xlink="http://www.w3.org/1999/xlink" version="1.1" width="1080" height="1080" viewBox="0 0 1080 1080" xml:space="preserve">
<desc>Created with Fabric.js 5.2.4</desc>
<defs>
</defs>
<rect x="0" y="0" width="100%" height="100%" fill="transparent"></rect>
<g transform="matrix(1 0 0 1 540 540)" id="23c2b503-3dea-46b8-903c-9d4855af580b"  >
<rect style="stroke: none; stroke-width: 1; stroke-dasharray: none; stroke-linecap: butt; stroke-dashoffset: 0; stroke-linejoin: miter; stroke-miterlimit: 4; fill: rgb(255,255,255); fill-rule: nonzero; opacity: 1; visibility: hidden;" vector-effect="non-scaling-stroke"  x="-540" y="-540" rx="0" ry="0" width="1080" height="1080" />
</g>
<g transform="matrix(1 0 0 1 540 540)" id="c6ff297d-1668-45d6-9ac0-f50b937926bf"  >
</g>
<g transform="matrix(0.59 0 0 0.59 515.15 607.45)"  >
<g style="" vector-effect="non-scaling-stroke"   >
		<g transform="matrix(1 0 0 1 18.72 0)"  >
<rect style="stroke: none; stroke-width: 1; stroke-dasharray: none; stroke-linecap: butt; stroke-dashoffset: 0; stroke-linejoin: miter; stroke-miterlimit: 4; fill: rgb(255,255,255); fill-rule: nonzero; opacity: 1; visibility: hidden;" vector-effect="non-scaling-stroke"  x="-540" y="-540" rx="0" ry="0" width="1080" height="1080" />
</g>
		<g transform="matrix(16.46 0 0 16.46 -377.31 252.22)"  >
<path style="stroke: none; stroke-width: 1; stroke-dasharray: none; stroke-linecap: butt; stroke-dashoffset: 0; stroke-linejoin: miter; stroke-miterlimit: 4; fill: rgb(0,209,205); fill-rule: nonzero; opacity: 1;" vector-effect="non-scaling-stroke"  transform=" translate(-27.1, -65.32)" d="M 41.645 52.773 C 36.501000000000005 52.773 32.088 55.867000000000004 30.152 60.297000000000004 L 24.036 60.297000000000004 C 22.1 55.86600000000001 17.687 52.773 12.543000000000001 52.773 C 5.615 52.773 0 58.391 0 65.317 C 0 72.246 5.616 77.86 12.543 77.86 C 17.686999999999998 77.86 22.1 74.763 24.036 70.333 L 30.152 70.333 C 32.088 74.764 36.501000000000005 77.86 41.645 77.86 C 48.573 77.86 54.193000000000005 72.246 54.193000000000005 65.31700000000001 C 54.192 58.391 48.573 52.773 41.645 52.773 z M 12.543 70.333 C 9.771999999999998 70.333 7.521999999999999 68.089 7.523 65.317 C 7.523 62.54599999999999 9.772 60.297 12.543 60.297 C 15.314 60.297 17.558999999999997 62.546 17.558999999999997 65.317 C 17.559 68.089 15.315 70.333 12.543 70.333 z M 41.645 70.333 C 38.874 70.333 36.63 68.088 36.63 65.317 L 36.63 65.317 C 36.63 62.54599999999999 38.875 60.29599999999999 41.646 60.29599999999999 C 44.417 60.29599999999999 46.666 62.544999999999995 46.666 65.317 C 46.665 68.088 44.416 70.333 41.645 70.333 z" stroke-linecap="round" />
</g>
		<g transform="matrix(16.46 0 0 16.46 -616.61 252.31)"  >
<path style="stroke: none; stroke-width: 1; stroke-dasharray: none; stroke-linecap: butt; stroke-dashoffset: 0; stroke-linejoin: miter; stroke-miterlimit: 4; fill: rgb(0,209,205); fill-rule: nonzero; opacity: 1;" vector-effect="non-scaling-stroke"  transform=" translate(-12.54, -65.32)" d="M 12.543 62.537 C 11.008999999999999 62.537 9.767999999999999 63.783 9.767999999999999 65.317 C 9.767999999999999 65.366 9.765999999999998 65.413 9.767999999999999 65.461 C 9.842999999999998 66.929 11.058 68.094 12.543999999999999 68.094 C 14.078999999999999 68.094 15.320999999999998 66.85199999999999 15.320999999999998 65.318 C 15.320999999999998 63.784000000000006 14.078 62.537 12.543 62.537 z" stroke-linecap="round" />
</g>
		<g transform="matrix(16.46 0 0 16.46 -137.33 252.35)"  >
<circle style="stroke: none; stroke-width: 1; stroke-dasharray: none; stroke-linecap: butt; stroke-dashoffset: 0; stroke-linejoin: miter; stroke-miterlimit: 4; fill: rgb(0,209,205); fill-rule: nonzero; opacity: 1;" vector-effect="non-scaling-stroke"  cx="0" cy="0" r="2.8" />
</g>
		<g transform="matrix(16.46 0 0 16.46 -2.27 4.46)"  >
<path style="stroke: none; stroke-width: 1; stroke-dasharray: none; stroke-linecap: butt; stroke-dashoffset: 0; stroke-linejoin: miter; stroke-miterlimit: 4; fill: rgb(0,209,205); fill-rule: nonzero; opacity: 1;" vector-effect="non-scaling-stroke"  transform=" translate(-49.85, -50.27)" d="M 44.194 50.021 C 45.852000000000004 50.243 47.496 50.786 49.034000000000006 51.674 C 50.574000000000005 52.563 51.861000000000004 53.719 52.882000000000005 55.045 L 53.755 53.531 L 54.63 52.016 L 55.504000000000005 50.501999999999995 C 53.845000000000006 50.281 52.2 49.74399999999999 50.660000000000004 48.855999999999995 C 49.12200000000001 47.967999999999996 47.829 46.815999999999995 46.80800000000001 45.49099999999999 L 45.934000000000005 47.004999999999995 L 45.068000000000005 48.504999999999995 L 44.194 50.021 L 44.194 50.021 z" stroke-linecap="round" />
</g>
		<g transform="matrix(16.46 0 0 16.46 377.32 -252.24)"  >
<path style="stroke: none; stroke-width: 1; stroke-dasharray: none; stroke-linecap: butt; stroke-dashoffset: 0; stroke-linejoin: miter; stroke-miterlimit: 4; fill: rgb(0,209,205); fill-rule: nonzero; opacity: 1;" vector-effect="non-scaling-stroke"  transform=" translate(-72.9, -34.68)" d="M 87.457 22.139 C 82.312 22.139 77.898 25.237 75.964 29.666999999999998 L 69.848 29.666999999999998 C 67.913 25.237 63.498999999999995 22.139 58.355999999999995 22.139 C 51.42699999999999 22.139 45.80799999999999 27.753999999999998 45.80799999999999 34.682 C 45.80799999999999 41.61000000000001 51.42699999999999 47.226 58.355999999999995 47.226 C 63.49999999999999 47.226 67.91399999999999 44.132 69.848 39.703 L 75.964 39.703 C 77.899 44.133 82.313 47.226 87.457 47.226 C 94.38399999999999 47.226 100 41.61 100 34.682 C 100 27.754 94.386 22.139 87.457 22.139 z M 58.355 39.703 C 55.583999999999996 39.703 53.333999999999996 37.453 53.333999999999996 34.682 C 53.333999999999996 31.911 55.583 29.667 58.355 29.667 C 61.126999999999995 29.667 63.370999999999995 31.912000000000003 63.372 34.682 C 63.371 37.454 61.127 39.703 58.355 39.703 z M 87.457 39.703 C 84.68599999999999 39.703 82.44 37.453 82.44 34.682 C 82.44 31.911 84.685 29.667 87.457 29.667 C 90.22899999999998 29.667 92.478 31.911 92.47699999999999 34.682 L 92.478 34.682 C 92.478 37.453 90.229 39.703 87.457 39.703 z" stroke-linecap="round" />
</g>
		<g transform="matrix(16.46 0 0 16.46 617.18 -252.07)"  >
<path style="stroke: none; stroke-width: 1; stroke-dasharray: none; stroke-linecap: butt; stroke-dashoffset: 0; stroke-linejoin: miter; stroke-miterlimit: 4; fill: rgb(0,209,205); fill-rule: nonzero; opacity: 1;" vector-effect="non-scaling-stroke"  transform=" translate(-87.46, -34.68)" d="M 87.457 31.906 C 85.92299999999999 31.906 84.68199999999999 33.147999999999996 84.68199999999999 34.682 C 84.68099999999998 36.217 85.92299999999999 37.463 87.457 37.463 C 88.99 37.463 90.232 36.217 90.232 34.682 C 90.232 34.635000000000005 90.234 34.587 90.232 34.539 C 90.158 33.072 88.943 31.906 87.457 31.906 z" stroke-linecap="round" />
</g>
		<g transform="matrix(16.46 0 0 16.46 137.91 -252.13)"  >
<circle style="stroke: none; stroke-width: 1; stroke-dasharray: none; stroke-linecap: butt; stroke-dashoffset: 0; stroke-linejoin: miter; stroke-miterlimit: 4; fill: rgb(0,209,205); fill-rule: nonzero; opacity: 1;" vector-effect="non-scaling-stroke"  cx="0" cy="0" r="2.8" />
</g>
</g>
</g>
</svg>